<svg width="854" height="191" viewBox="0 0 854 191" fill="none" xmlns="http://www.w3.org/2000/svg">
<path fill-rule="evenodd" clip-rule="evenodd" d="M437.443 -8.77621C437.443 17.5984 422.372 43.973 382.639 43.973V55.2764H410.041V176.873C410.041 205.646 422.372 215.237 458.68 215.237C470.668 215.237 478.889 214.209 488.822 211.126V199.823C476.834 203.248 470.668 203.933 465.53 203.933C453.884 203.933 448.746 197.768 448.746 184.067V55.2764H516.506V156.664C516.506 196.055 534.317 215.237 571.653 215.237C603.85 215.237 622.347 200.508 640.843 182.354L645.981 211.811H701.128V200.508H678.864V43.973H617.894V55.2764H640.158V156.664C640.158 166.598 638.103 170.365 630.568 178.244C614.126 195.712 598.713 203.933 583.984 203.933C565.145 203.933 555.212 190.575 555.212 161.802V43.973H448.746V-8.77621H437.443ZM184.63 99.1436V200.536H206.895V211.84H123.657V200.536H145.923V93.6629C145.923 66.9447 138.044 51.8729 116.807 51.8729C100.365 51.8729 85.2928 61.1215 70.221 77.5635C63.7127 84.7569 60.6298 90.2375 60.6298 99.1436L60.9724 200.536H83.2376V211.84H0V200.536H22.2652V55.2983H0V43.9944H55.1492L60.2873 73.1104C77.4143 57.3535 96.2541 40.569 133.934 40.569C161.337 40.569 184.63 49.4751 184.63 99.1436ZM211.003 127.917C211.003 72.7679 238.064 40.569 296.981 40.569C355.555 40.569 382.616 72.7679 382.616 127.917C382.616 183.066 355.555 215.265 296.981 215.265C238.064 215.265 211.003 183.066 211.003 127.917ZM343.909 127.917C343.909 79.6188 326.097 51.1878 296.981 51.1878C267.522 51.1878 249.71 79.6188 249.71 127.917C249.71 176.215 267.522 204.304 296.981 204.304C326.097 204.304 343.909 176.215 343.909 127.917ZM743.371 77.221C743.371 62.8342 757.073 51.8729 780.023 51.8729C797.493 51.8729 817.018 58.0386 831.062 85.7845H842.366V43.9944H831.062L824.896 55.2983C812.565 44.6795 796.465 40.569 779.338 40.569C745.427 40.569 716.996 57.3535 716.996 90.9226C716.996 126.887 748.813 135.579 777.099 143.305C799.73 149.488 820.101 155.052 820.101 173.475C820.101 189.917 804.344 203.961 780.366 203.961C762.554 203.961 744.056 196.083 726.929 163.884H715.625V211.84H726.929L734.123 196.083C747.824 209.442 762.896 215.265 784.134 215.265C823.526 215.265 853.327 195.398 853.327 161.144C853.519 124.032 818.846 114.877 788.391 106.837C764.593 100.554 743.371 94.9507 743.371 77.221Z" fill="url(#paint0_linear_16_2420)"/>
<defs>
<linearGradient id="paint0_linear_16_2420" x1="426.664" y1="35.6512" x2="426.664" y2="215.265" gradientUnits="userSpaceOnUse">
<stop stop-color="#EBE6E0"/>
<stop offset="1" stop-color="#F0EBE5" stop-opacity="0"/>
</linearGradient>
</defs>
</svg>
