<svg width="413" height="109" viewBox="0 0 413 109" fill="none" xmlns="http://www.w3.org/2000/svg">
<path fill-rule="evenodd" clip-rule="evenodd" d="M211.623 0C211.623 12.7593 204.332 25.5186 185.11 25.5186V30.9869H198.366V89.8122C198.366 103.731 204.332 108.371 221.897 108.371C227.696 108.371 231.673 107.874 236.479 106.383V100.914C230.679 102.571 227.696 102.903 225.211 102.903C219.577 102.903 217.091 99.9202 217.091 93.292V30.9869H249.871V80.0356C249.871 99.0917 258.488 108.371 276.55 108.371C292.126 108.371 301.074 101.246 310.022 92.4635L312.508 106.714H339.186V101.246H328.416V25.5186H298.92V30.9869H309.691V80.0356C309.691 84.841 308.697 86.6638 305.051 90.475C297.097 98.926 289.641 102.903 282.515 102.903C273.401 102.903 268.596 96.4404 268.596 82.5212V25.5186H217.091V0H211.623ZM89.3188 52.2086V101.259H100.09V106.728H59.822V101.259H70.5933V49.5572C70.5933 36.6317 66.782 29.3404 56.5078 29.3404C48.5536 29.3404 41.2623 33.8146 33.971 41.7688C30.8224 45.2487 29.331 47.9001 29.331 52.2086L29.4967 101.259H40.268V106.728H0V101.259H10.7713V30.9975H0V25.529H26.6796L29.1653 39.6145C37.4509 31.9918 46.5651 23.8719 64.7934 23.8719C78.0504 23.8719 89.3188 28.1804 89.3188 52.2086ZM102.077 66.1284C102.077 39.4488 115.169 23.8719 143.671 23.8719C172.008 23.8719 185.099 39.4488 185.099 66.1284C185.099 92.8081 172.008 108.385 143.671 108.385C115.169 108.385 102.077 92.8081 102.077 66.1284ZM166.374 66.1284C166.374 42.7631 157.757 29.0089 143.671 29.0089C129.42 29.0089 120.803 42.7631 120.803 66.1284C120.803 89.4938 129.42 103.082 143.671 103.082C157.757 103.082 166.374 89.4938 166.374 66.1284ZM359.622 41.6031C359.622 34.6432 366.251 29.3404 377.354 29.3404C385.805 29.3404 395.251 32.3232 402.045 45.7459H407.513V25.529H402.045L399.062 30.9975C393.096 25.8604 385.308 23.8719 377.022 23.8719C360.617 23.8719 346.863 31.9918 346.863 48.2315C346.863 65.63 362.255 69.8349 375.939 73.5728C386.887 76.5637 396.742 79.2557 396.742 88.1682C396.742 96.1223 389.119 102.917 377.519 102.917C368.902 102.917 359.954 99.1051 351.668 83.5282H346.2V106.728H351.668L355.148 99.1051C361.777 105.568 369.068 108.385 379.342 108.385C398.399 108.385 412.816 98.7737 412.816 82.2025C412.909 64.2488 396.135 59.8202 381.402 55.9303C369.889 52.8908 359.622 50.1802 359.622 41.6031Z" fill="#2D2D2D"/>
</svg>
